<?xml version="1.0" encoding="utf-8"?>
<!-- Generator: Adobe Illustrator 23.0.1, SVG Export Plug-In . SVG Version: 6.00 Build 0)  -->
<svg version="1.1" id="Layer_1" xmlns="http://www.w3.org/2000/svg" xmlns:xlink="http://www.w3.org/1999/xlink" x="0px" y="0px"
	 viewBox="0 0 100 100" style="enable-background:new 0 0 100 100;" xml:space="preserve">
<g>
	<path d="M82.9498978,81.5790405L60.8660393,31.5010681V7.7374802h1.0252151c0.7561035,0,1.3687439-0.6126356,1.3687439-1.3687401
		C63.2599983,5.6126366,62.6473579,5,61.8912544,5h-23.782299c-0.7561035,0-1.3687401,0.6126366-1.3687401,1.3687401
		c0,0.7561045,0.6126366,1.3687401,1.3687401,1.3687401h1.0247726v23.763588L17.106905,81.4257736l-0.0565853,0.1532669
		c-0.9708614,3.1821442-0.3916416,6.5402756,1.5879517,9.2140427C20.6178646,93.4664078,23.6614399,95,26.9883881,95h46.0234375
		c3.3264999,0,6.370079-1.5331497,8.3496704-4.2069168C83.3415375,88.1197662,83.920311,84.7611847,82.9498978,81.5790405z
		 M79.1613541,89.1641388c-1.4578476,1.9689026-3.6994324,3.098381-6.1495285,3.098381H26.9883881
		c-2.4505424,0-4.6921234-1.1294785-6.1504192-3.0988235c-1.4422569-1.9479599-1.8748894-4.389595-1.1918545-6.7109222
		l22.2250938-50.3742676V7.7374792h2.4484253l13.8089256,3.6812735v20.6597538l22.225544,50.3742676
		C81.0371323,84.7741013,80.6040573,87.2157364,79.1613541,89.1641388z"/>
	<polygon points="42.1563606,63.4245224 42.1563606,59.4620514 31.825985,67.5165405 31.825985,68.9466019 42.1879959,76.839859 
		42.1879959,72.8773804 36.0817986,68.1350784 	"/>
	<polygon points="45.1750984,79.3246536 49.3014793,79.3246536 55.6350174,56.9772568 51.5100861,56.9772568 	"/>
	<polygon points="57.8449669,63.4245224 63.9181938,68.1350784 57.8119926,72.8773804 57.8119926,76.839859 68.174118,68.9466019 
		68.174118,67.5165405 57.8449669,59.4620514 	"/>
</g>
</svg>
