<?xml version="1.0" encoding="utf-8"?>
<!-- Generator: Adobe Illustrator 23.0.1, SVG Export Plug-In . SVG Version: 6.00 Build 0)  -->
<svg version="1.1" id="Layer_1" xmlns="http://www.w3.org/2000/svg" xmlns:xlink="http://www.w3.org/1999/xlink" x="0px" y="0px"
	 viewBox="0 0 350 115" style="enable-background:new 0 0 350 115;" xml:space="preserve">
<g>
	<g>
		<g>
			<path d="M113.5416336,67.3729248V12.282424h3.8435211v55.0904999H113.5416336z"/>
			<path d="M164.4651031,67.3729248V40.8073959c0-4.1197014-0.866684-7.1153908-2.6000366-8.9870625
				c-1.7333527-1.871212-4.4216156-2.8072796-8.063858-2.8072796c-4.8986053,0-8.4848022,1.2375202-10.7576447,3.7116394
				c-2.2746735,2.4745789-3.4106445,6.4876671-3.4106445,12.0392685v22.608963h-3.7304688V26.4130249h3.1652527l0.7159424,5.6145592
				h0.2260895c2.6625366-4.2704296,7.3975525-6.4058743,14.2059631-6.4058743
				c9.2944946,0,13.9421997,4.9868393,13.9421997,14.9595966v26.7916183H164.4651031z"/>
			<path d="M210.6774445,56.7090302c0,3.667984-1.3942261,6.4876709-4.182663,8.4595184
				c-2.7884369,1.9723129-6.7449951,2.9580078-11.8697052,2.9580078c-5.4766846,0-9.822937-0.8414001-13.0378265-2.5246658
				v-4.0319328c4.1192474,2.0600815,8.4654999,3.0898933,13.0378265,3.0898933c4.0438843,0,7.1154022-0.6718369,9.2126923-2.0159683
				c2.0973053-1.3436699,3.1468811-3.1335449,3.1468811-5.3696289c0-2.0596199-0.835434-3.7929726-2.5053711-5.2000618
				c-1.6717682-1.4066238-4.4160919-2.7884369-8.2338867-4.1449738c-4.0953522-1.4819908-6.9710999-2.7567329-8.6290894-3.8246841
				c-1.6579895-1.0674896-2.9079132-2.2733002-3.7497711-3.6174316c-0.8418732-1.3436699-1.2618713-2.9828224-1.2618713-4.91745
				c0-3.0646172,1.2866821-5.4886456,3.8628235-7.2725487c2.574295-1.7834415,6.1724243-2.6753941,10.7953186-2.6753941
				c4.4206848,0,8.6162109,0.8289967,12.5856476,2.4869862l-1.3942261,3.3913441
				c-4.0199738-1.6579895-7.7504578-2.4869862-11.1914215-2.4869862c-3.3417206,0-5.9913788,0.5528183-7.9508209,1.6579914
				c-1.9594421,1.1056328-2.9391632,2.6377125-2.9391632,4.5971546c0,2.1354446,0.75914,3.8435249,2.2801971,5.1246986
				c1.5192108,1.2811737,4.489624,2.7130737,8.9112396,4.2957001c3.6927948,1.3317261,6.380127,2.5311012,8.063858,3.5985947
				c1.6828003,1.0679512,2.9446716,2.2797356,3.7865448,3.6362724
				C210.2565155,53.2800064,210.6774445,54.8754997,210.6774445,56.7090302z"/>
			<path d="M218.2293854,26.4130249h3.8435211l8.6667786,22.985775c2.6377106,7.0593262,4.3076477,11.8196144,5.0116425,14.2813263
				h0.2260895c1.0550842-3.2406158,2.7755737-8.0762711,5.162384-14.5074158l8.6667633-22.7596855h3.8435211l-18.3509369,47.5918579
				c-1.4824371,3.8683395-2.7259369,6.4812393-3.7304688,7.8377762c-1.0054626,1.3565369-2.1800232,2.3739395-3.5236969,3.0522079
				s-2.9704132,1.0174026-4.879303,1.0174026c-1.4319,0-3.0273895-0.2637711-4.7855682-0.7913132v-3.2406158
				c1.4567261,0.4016266,3.026474,0.6029053,4.7102051,0.6029053c1.2811737,0,2.4116211-0.3014526,3.3913422-0.9043579
				s1.8647766-1.5389709,2.6570129-2.8072815c0.79039-1.2687683,1.7076263-3.2782974,2.7498322-6.0290527
				c1.0422211-2.7507553,1.7149811-4.5406342,2.0164337-5.3696289L218.2293854,26.4130249z"/>
			<path d="M275.1809998,64.8105774c2.3610535,0,4.4206848-0.2008209,6.1797791-0.6029053v3.0145264
				c-1.8087158,0.6029053-3.8940735,0.9043579-6.2551575,0.9043579c-3.6174316,0-6.2872925-0.9668579-8.007782-2.9014816
				c-1.7204895-1.9341698-2.5807495-4.9739723-2.5807495-9.1189499V29.6536427h-6.0667419v-2.1855335l6.0667419-1.6956711
				l1.8840942-9.2696743h1.9217529v9.9102612h12.0204468v3.2406178H268.322937v25.9249401
				c0,3.1404381,0.5523682,5.4638329,1.6579895,6.971096C271.0856323,64.0569458,272.8190002,64.8105774,275.1809998,64.8105774z"/>
			<path d="M310.6173096,68.1265564c-5.9536743,0-10.5949402-1.8335342-13.9228821-5.5015144
				c-3.3297729-3.6675224-4.9932861-8.8046265-4.9932861-15.4117737c0-6.5313263,1.6074524-11.7626343,4.8232727-15.6943874
				c3.2148743-3.9312935,7.5482483-5.897171,13.0001526-5.897171c4.8232422,0,8.6290588,1.6832657,11.417511,5.0493355
				c2.7884521,3.3665295,4.1826477,7.9384098,4.1826477,13.7161007v3.0145302h-29.5046692
				c0.0496216,5.6274261,1.36203,9.9231262,3.9381714,12.8871078c2.5743103,2.9644394,6.2606506,4.4464302,11.059082,4.4464302
				c2.3362732,0,4.3903809-0.1631393,6.1604919-0.4898605c1.7719421-0.3262711,4.0135498-1.0298119,6.7266235-2.1101723v3.391346
				c-2.3114319,1.0049973-4.4464417,1.6896973-6.4058838,2.0536423
				C315.1390991,67.9441223,312.9783936,68.1265564,310.6173096,68.1265564z M309.5245667,28.9376907
				c-3.9446411,0-7.1098938,1.3000164-9.4957886,3.9000473c-2.3868103,2.600029-3.7810059,6.34935-4.1826477,11.2479553h25.322052
				c0-4.747879-1.0302734-8.4595184-3.0899048-11.1349106C316.0177307,30.2753887,313.1668091,28.9376907,309.5245667,28.9376907z"
				/>
		</g>
		<g>
			<path d="M111.6961517,101.9653702V78.7886047h6.261467v18.1197281h8.925499v5.0570374H111.6961517z"/>
			<path d="M151.3056793,101.9653702l-1.1414032-4.3436661h-7.5300598l-1.173111,4.3436661h-6.8801117l7.5617828-23.2718887
				h8.3544159l7.6568909,23.2718887H151.3056793z M148.8643494,92.485405l-0.9987183-3.8046646
				c-0.2327728-0.8454208-0.5150299-1.9392624-0.8483124-3.2815323c-0.3325348-1.3420715-0.5521545-2.3038712-0.6576996-2.8852005
				c-0.0951233,0.5389938-0.2830353,1.4267502-0.5625916,2.6632614c-0.2803192,1.2365189-0.9012756,3.6726303-1.8628845,7.308136
				H148.8643494z"/>
			<path d="M167.1522827,78.7886047h8.0849152c3.149292,0,5.487381,0.4676514,7.0146637,1.4029694
				c1.5272827,0.9353104,2.2909241,2.3912582,2.2909241,4.3674393c0,1.2999268-0.3329163,2.4096222-0.9987335,3.3290863
				c-0.6658173,0.9194565-1.5431366,1.5114288-2.6315613,1.7755127v0.1585236
				c1.4371948,0.3804703,2.4780579,1.0145798,3.1230011,1.9023361c0.6445465,0.8877563,0.9670258,2.0397873,0.9670258,3.4559021
				c0,2.1032028-0.790329,3.759819-2.3701935,4.9698486c-1.5798645,1.210228-3.733139,1.8151474-6.4598083,1.8151474h-9.0202332
				V78.7886047z M173.4141235,87.6820145h1.8864899c0.8981934,0,1.5930023-0.1848221,2.0848236-0.5548477
				c0.4910583-0.3698349,0.736969-0.9194641,0.736969-1.6486893c0-1.2999268-0.9828796-1.9498978-2.9486237-1.9498978h-1.7596588
				V87.6820145z M173.4141235,92.2634659v4.866806h2.203537c1.9549255,0,2.9327698-0.8243484,2.9327698-2.4730377
				c0-0.7713699-0.2617645-1.3633347-0.7845154-1.7755127c-0.5235291-0.4121704-1.2817535-0.6182556-2.2750702-0.6182556
				H173.4141235z"/>
			<path d="M210.6774445,94.9267349c0,1.4373856-0.3646088,2.7135315-1.0938416,3.8284454
				c-0.7292328,1.1151047-1.7809296,1.9815979-3.1547089,2.5998535c-1.3741608,0.6182632-2.985733,0.9273911-4.8350983,0.9273911
				c-1.5431213,0-2.8376465-0.1084595-3.8839264-0.3249817c-1.0462799-0.2165298-2.1351013-0.5944824-3.2656708-1.1334763
				v-5.5801773c1.193985,0.6130371,2.4359131,1.0913315,3.7254028,1.4346771
				c1.289093,0.343544,2.4730377,0.515213,3.5510254,0.515213c0.9299011,0,1.6115723-0.1610413,2.0449982-0.4835052
				c0.4330597-0.3222809,0.6499786-0.7371597,0.6499786-1.2444458c0-0.3170547-0.0870056-0.5944824-0.2617645-0.8322754
				c-0.173996-0.2377853-0.4543304-0.478096-0.8398132-0.7212982c-0.3862762-0.2430115-1.4140015-0.7396698-3.0835571-1.4901581
				c-1.5114288-0.6868896-2.6450958-1.3527069-3.4006195-1.9974518c-0.7555237-0.6445541-1.3153992-1.3844147-1.6804047-2.2193909
				c-0.3642273-0.8347855-0.5467224-1.8230743-0.5467224-2.9644699c0-2.1347122,0.7767944-3.7992554,2.330368-4.9936295
				c1.5535583-1.1941757,3.6882782-1.7913589,6.4045105-1.7913589c2.3988037,0,4.8455505,0.5548477,7.3398438,1.6645355
				l-1.9181824,4.8350983c-2.1668091-0.993309-4.0374298-1.4901581-5.6118927-1.4901581
				c-0.8139038,0-1.4058685,0.1426773-1.7755127,0.4280243c-0.3700256,0.2853546-0.5548401,0.6395264-0.5548401,1.0621338
				c0,0.4545135,0.2350769,0.8614655,0.705246,1.220665c0.4701843,0.3593979,1.746521,1.0145798,3.8286438,1.965744
				c1.9974518,0.8983917,3.3847656,1.862709,4.1611633,2.8931351
				C210.2892456,92.0653076,210.6774445,93.3627243,210.6774445,94.9267349z"/>
		</g>
	</g>
	<g>
		<path d="M91.2356033,88.8614655L69.1517487,38.783493v-23.763588h1.0252151c0.7561035,0,1.3687439-0.6126356,1.3687439-1.3687401
			c0-0.7561035-0.6126404-1.3687401-1.3687439-1.3687401h-23.782299c-0.7561035,0-1.3687401,0.6126366-1.3687401,1.3687401
			c0,0.7561045,0.6126366,1.3687401,1.3687401,1.3687401h1.0247726v23.763588l-22.026823,49.9247055l-0.0565853,0.1532669
			c-0.9708614,3.1821442-0.3916416,6.5402756,1.5879517,9.2140427c1.9795933,2.6733246,5.0231686,4.2069168,8.3501167,4.2069168
			h46.0234337c3.3264999,0,6.370079-1.5331497,8.3496704-4.2069168
			C91.627243,95.4021912,92.2060165,92.0436096,91.2356033,88.8614655z M87.4470596,96.4465637
			c-1.4578476,1.9689026-3.6994324,3.098381-6.1495285,3.098381H35.2740974c-2.4505424,0-4.6921234-1.1294785-6.1504192-3.0988235
			c-1.4422569-1.9479599-1.8748894-4.389595-1.1918545-6.7109222l22.2250938-50.3742676V15.0199041h2.4484253l13.8089256,3.6812735
			v20.6597538L88.6398087,89.735199C89.3228378,92.0565262,88.8897629,94.4981613,87.4470596,96.4465637z"/>
		<polygon points="50.44207,70.7069473 50.44207,66.7444763 40.1116943,74.7989655 40.1116943,76.2290268 50.4737053,84.1222839 
			50.4737053,80.1598053 44.3675079,75.4175034 		"/>
		<polygon points="53.4608078,86.6070786 57.5871887,86.6070786 63.9207268,64.2596817 59.7957954,64.2596817 		"/>
		<polygon points="66.1306763,70.7069473 72.2039032,75.4175034 66.097702,80.1598053 66.097702,84.1222839 76.4598236,76.2290268 
			76.4598236,74.7989655 66.1306763,66.7444763 		"/>
	</g>
</g>
</svg>
